<svg width="548" height="190" viewBox="0 0 548 190" fill="none" xmlns="http://www.w3.org/2000/svg">
<path d="M0 125V36.5636H63.7364V55.9091H24.0091V71.1091H60.4545V90.4546H24.0091V105.655H63.5636V125H0Z" fill="#066FFC"/>
<path d="M109.671 125H75.6437V36.5636H109.326C118.423 36.5636 126.282 38.3341 132.903 41.875C139.553 45.3871 144.677 50.4538 148.276 57.075C151.903 63.6674 153.716 71.5697 153.716 80.7818C153.716 89.9939 151.917 97.9106 148.319 104.532C144.72 111.124 139.625 116.191 133.032 119.732C126.44 123.244 118.653 125 109.671 125ZM99.6528 104.618H108.807C113.183 104.618 116.911 103.913 119.991 102.502C123.101 101.092 125.461 98.6591 127.073 95.2046C128.714 91.75 129.535 86.9424 129.535 80.7818C129.535 74.6212 128.7 69.8136 127.03 66.3591C125.389 62.9046 122.971 60.472 119.776 59.0614C116.609 57.6508 112.723 56.9455 108.116 56.9455H99.6528V104.618Z" fill="#066FFC"/>
<path d="M217.161 90.1091H241.17V93.2182C241.17 99.9546 239.558 105.784 236.334 110.707C233.139 115.601 228.677 119.386 222.948 122.064C217.219 124.712 210.569 126.036 202.998 126.036C195.369 126.036 188.69 124.712 182.961 122.064C177.233 119.386 172.77 115.601 169.575 110.707C166.408 105.784 164.825 99.9546 164.825 93.2182V36.5636H188.834V91.1455C188.834 93.8803 189.439 96.3273 190.648 98.4864C191.857 100.617 193.527 102.286 195.657 103.495C197.816 104.705 200.263 105.309 202.998 105.309C205.761 105.309 208.208 104.705 210.339 103.495C212.469 102.286 214.139 100.617 215.348 98.4864C216.557 96.3273 217.161 93.8803 217.161 91.1455V90.1091Z" fill="#066FFC"/>
<path d="M335.145 69.7273H310.79C310.618 67.7121 310.157 65.8841 309.409 64.2432C308.689 62.6023 307.681 61.1917 306.386 60.0114C305.119 58.8023 303.579 57.8811 301.765 57.2477C299.952 56.5856 297.893 56.2546 295.59 56.2546C291.56 56.2546 288.149 57.2333 285.356 59.1909C282.593 61.1485 280.491 63.9553 279.052 67.6114C277.641 71.2674 276.936 75.6576 276.936 80.7818C276.936 86.1939 277.655 90.728 279.095 94.3841C280.563 98.0114 282.679 100.746 285.443 102.589C288.206 104.402 291.531 105.309 295.418 105.309C297.634 105.309 299.621 105.036 301.377 104.489C303.133 103.913 304.659 103.092 305.954 102.027C307.249 100.962 308.3 99.6811 309.106 98.1841C309.941 96.6583 310.502 94.9455 310.79 93.0455L335.145 93.2182C334.857 96.9606 333.806 100.775 331.993 104.661C330.179 108.519 327.602 112.089 324.263 115.37C320.952 118.623 316.85 121.243 311.956 123.23C307.062 125.216 301.377 126.209 294.899 126.209C286.781 126.209 279.498 124.467 273.049 120.984C266.63 117.501 261.549 112.377 257.806 105.611C254.093 98.8462 252.236 90.5697 252.236 80.7818C252.236 70.9364 254.136 62.6455 257.936 55.9091C261.736 49.1439 266.86 44.0341 273.309 40.5796C279.757 37.0962 286.954 35.3546 294.899 35.3546C300.484 35.3546 305.623 36.1174 310.315 37.6432C315.008 39.1689 319.124 41.4 322.665 44.3364C326.206 47.2439 329.056 50.828 331.215 55.0886C333.374 59.3492 334.684 64.2288 335.145 69.7273Z" fill="#066FFC"/>
<path d="M366.279 125H340.37L369.561 36.5636H402.379L431.57 125H405.661L386.315 60.9182H385.624L366.279 125ZM361.443 90.1091H410.152V108.073H361.443V90.1091Z" fill="#066FFC"/>
<path d="M426.507 55.9091V36.5636H503.37V55.9091H476.77V125H453.107V55.9091H426.507Z" fill="#066FFC"/>
<path d="M536.415 69.5V125H512.406V69.5H536.415Z" fill="#066FFC"/>
<path d="M234.414 46.3503L222.726 46.3519L222.727 41.6757C222.727 39.593 224.906 37.0012 227.402 37.0012L229.739 37.0012C232.235 37.0012 234.415 39.5914 234.415 41.6774L234.414 46.3503ZM234.415 51.0265L234.415 83.7549L228.57 93.104L222.726 83.7549L222.726 51.0265L234.415 51.0265Z" fill="#066FFC"/>
<path d="M535.8 33H510.8C509.419 33 508.3 34.1193 508.3 35.5V53.8333C508.3 55.214 509.419 56.3333 510.8 56.3333H535.8C537.181 56.3333 538.3 55.214 538.3 53.8333V35.5C538.3 34.1193 537.181 33 535.8 33Z" fill="#066FFC" stroke="#2F88FF" stroke-width="3" stroke-linejoin="round"/>
<path d="M514.967 65H531.633" stroke="#2F88FF" stroke-width="3" stroke-linecap="round" stroke-linejoin="round"/>
<path d="M523.3 58.3333V65" stroke="#2F88FF" stroke-width="3" stroke-linecap="round" stroke-linejoin="round"/>
<path d="M291.95 157.628H285.618C285.573 157.104 285.453 156.629 285.258 156.202C285.071 155.775 284.809 155.409 284.472 155.102C284.143 154.787 283.743 154.548 283.271 154.383C282.799 154.211 282.264 154.125 281.665 154.125C280.617 154.125 279.73 154.379 279.004 154.888C278.286 155.397 277.739 156.127 277.365 157.078C276.998 158.028 276.815 159.17 276.815 160.502C276.815 161.91 277.002 163.089 277.376 164.039C277.758 164.982 278.308 165.694 279.027 166.173C279.745 166.644 280.61 166.88 281.62 166.88C282.197 166.88 282.713 166.809 283.17 166.667C283.627 166.517 284.023 166.304 284.36 166.027C284.697 165.75 284.97 165.417 285.18 165.027C285.397 164.631 285.543 164.185 285.618 163.691L291.95 163.736C291.875 164.709 291.602 165.701 291.131 166.712C290.659 167.715 289.989 168.643 289.121 169.496C288.26 170.342 287.193 171.023 285.921 171.54C284.648 172.056 283.17 172.314 281.486 172.314C279.375 172.314 277.481 171.862 275.804 170.956C274.135 170.05 272.814 168.718 271.841 166.959C270.875 165.199 270.392 163.047 270.392 160.502C270.392 157.942 270.886 155.787 271.874 154.035C272.862 152.276 274.195 150.947 275.872 150.049C277.548 149.143 279.42 148.69 281.486 148.69C282.938 148.69 284.274 148.889 285.494 149.285C286.714 149.682 287.785 150.262 288.705 151.026C289.626 151.782 290.367 152.714 290.929 153.822C291.49 154.929 291.831 156.198 291.95 157.628ZM306.056 164.455V154.754H312.254V172H306.37V168.721H306.19C305.816 169.822 305.161 170.683 304.225 171.304C303.29 171.918 302.178 172.225 300.891 172.225C299.686 172.225 298.63 171.948 297.724 171.394C296.826 170.84 296.126 170.076 295.625 169.103C295.131 168.13 294.88 167.015 294.872 165.757V154.754H301.07V164.455C301.078 165.308 301.295 165.978 301.722 166.465C302.156 166.951 302.762 167.194 303.541 167.194C304.057 167.194 304.502 167.086 304.877 166.869C305.258 166.644 305.55 166.33 305.752 165.926C305.962 165.514 306.063 165.024 306.056 164.455ZM315.406 172V154.754H321.424V158.032H321.604C321.918 156.82 322.416 155.933 323.097 155.371C323.786 154.81 324.59 154.529 325.511 154.529C325.781 154.529 326.046 154.551 326.308 154.596C326.578 154.634 326.836 154.69 327.083 154.765V160.053C326.776 159.948 326.398 159.87 325.949 159.817C325.5 159.765 325.114 159.739 324.793 159.739C324.186 159.739 323.64 159.877 323.153 160.154C322.674 160.424 322.296 160.806 322.019 161.3C321.742 161.786 321.604 162.359 321.604 163.017V172H315.406ZM344.88 160.368H339.176C339.146 160.016 339.022 159.713 338.805 159.458C338.588 159.204 338.308 159.009 337.963 158.874C337.626 158.732 337.252 158.661 336.84 158.661C336.309 158.661 335.852 158.758 335.471 158.953C335.089 159.148 334.902 159.424 334.909 159.784C334.902 160.038 335.01 160.274 335.235 160.491C335.467 160.708 335.912 160.877 336.571 160.996L340.074 161.625C341.841 161.947 343.154 162.49 344.015 163.253C344.883 164.009 345.321 165.024 345.329 166.296C345.321 167.524 344.955 168.59 344.228 169.496C343.51 170.394 342.526 171.091 341.275 171.585C340.033 172.071 338.614 172.314 337.02 172.314C334.385 172.314 332.323 171.775 330.833 170.698C329.351 169.62 328.524 168.197 328.352 166.431H334.505C334.587 166.977 334.857 167.4 335.313 167.7C335.777 167.992 336.361 168.138 337.065 168.138C337.634 168.138 338.102 168.04 338.468 167.846C338.843 167.651 339.034 167.374 339.041 167.015C339.034 166.685 338.869 166.423 338.547 166.229C338.233 166.034 337.739 165.877 337.065 165.757L334.011 165.218C332.252 164.911 330.934 164.327 330.059 163.467C329.183 162.606 328.749 161.498 328.756 160.143C328.749 158.945 329.063 157.931 329.699 157.1C330.343 156.262 331.26 155.626 332.45 155.191C333.648 154.75 335.066 154.529 336.706 154.529C339.198 154.529 341.163 155.046 342.6 156.079C344.045 157.111 344.805 158.541 344.88 160.368ZM356.012 172.314C354.141 172.314 352.539 171.944 351.207 171.203C349.874 170.454 348.853 169.414 348.141 168.081C347.43 166.741 347.075 165.188 347.075 163.422C347.075 161.655 347.43 160.106 348.141 158.773C348.853 157.433 349.874 156.393 351.207 155.652C352.539 154.903 354.141 154.529 356.012 154.529C357.884 154.529 359.486 154.903 360.818 155.652C362.15 156.393 363.172 157.433 363.883 158.773C364.594 160.106 364.95 161.655 364.95 163.422C364.95 165.188 364.594 166.741 363.883 168.081C363.172 169.414 362.15 170.454 360.818 171.203C359.486 171.944 357.884 172.314 356.012 172.314ZM356.057 167.733C356.581 167.733 357.034 167.557 357.416 167.206C357.798 166.854 358.093 166.352 358.303 165.701C358.513 165.05 358.617 164.275 358.617 163.377C358.617 162.471 358.513 161.696 358.303 161.053C358.093 160.401 357.798 159.9 357.416 159.548C357.034 159.196 356.581 159.02 356.057 159.02C355.503 159.02 355.028 159.196 354.631 159.548C354.235 159.9 353.931 160.401 353.722 161.053C353.512 161.696 353.407 162.471 353.407 163.377C353.407 164.275 353.512 165.05 353.722 165.701C353.931 166.352 354.235 166.854 354.631 167.206C355.028 167.557 355.503 167.733 356.057 167.733ZM383.229 160.368H377.526C377.496 160.016 377.372 159.713 377.155 159.458C376.938 159.204 376.657 159.009 376.313 158.874C375.976 158.732 375.602 158.661 375.19 158.661C374.659 158.661 374.202 158.758 373.82 158.953C373.438 159.148 373.251 159.424 373.259 159.784C373.251 160.038 373.36 160.274 373.584 160.491C373.816 160.708 374.262 160.877 374.921 160.996L378.424 161.625C380.19 161.947 381.504 162.49 382.365 163.253C383.233 164.009 383.671 165.024 383.679 166.296C383.671 167.524 383.304 168.59 382.578 169.496C381.86 170.394 380.875 171.091 379.625 171.585C378.383 172.071 376.964 172.314 375.37 172.314C372.735 172.314 370.673 171.775 369.183 170.698C367.701 169.62 366.874 168.197 366.702 166.431H372.855C372.937 166.977 373.206 167.4 373.663 167.7C374.127 167.992 374.711 168.138 375.415 168.138C375.984 168.138 376.451 168.04 376.818 167.846C377.192 167.651 377.383 167.374 377.391 167.015C377.383 166.685 377.219 166.423 376.897 166.229C376.582 166.034 376.088 165.877 375.415 165.757L372.361 165.218C370.601 164.911 369.284 164.327 368.408 163.467C367.532 162.606 367.098 161.498 367.106 160.143C367.098 158.945 367.413 157.931 368.049 157.1C368.693 156.262 369.61 155.626 370.8 155.191C371.998 154.75 373.416 154.529 375.055 154.529C377.548 154.529 379.513 155.046 380.95 156.079C382.395 157.111 383.155 158.541 383.229 160.368ZM391.634 154.035V149.005H411.62V154.035H404.703V172H398.55V154.035H391.634ZM419.822 172.314C417.98 172.314 416.394 171.963 415.061 171.259C413.736 170.548 412.714 169.53 411.996 168.205C411.285 166.872 410.929 165.278 410.929 163.422C410.929 161.64 411.289 160.083 412.007 158.751C412.726 157.418 413.74 156.382 415.05 155.641C416.36 154.9 417.906 154.529 419.687 154.529C420.99 154.529 422.169 154.731 423.224 155.135C424.279 155.54 425.181 156.127 425.93 156.898C426.679 157.662 427.255 158.59 427.659 159.683C428.063 160.776 428.265 162.007 428.265 163.377V164.814H412.86V161.401H422.562C422.554 160.907 422.427 160.472 422.18 160.098C421.94 159.716 421.615 159.421 421.203 159.211C420.799 158.994 420.338 158.886 419.822 158.886C419.32 158.886 418.86 158.994 418.441 159.211C418.022 159.421 417.685 159.713 417.43 160.087C417.183 160.461 417.052 160.899 417.037 161.401V165.083C417.037 165.637 417.153 166.131 417.385 166.566C417.617 167 417.951 167.34 418.385 167.587C418.819 167.834 419.343 167.958 419.957 167.958C420.383 167.958 420.773 167.898 421.124 167.778C421.484 167.658 421.791 167.486 422.045 167.262C422.3 167.03 422.487 166.753 422.606 166.431H428.265C428.071 167.629 427.61 168.669 426.884 169.552C426.158 170.428 425.196 171.109 423.999 171.596C422.809 172.075 421.416 172.314 419.822 172.314ZM417.531 152.598L419.687 147.568H424.987L421.618 152.598H417.531ZM439.103 172.314C437.232 172.314 435.63 171.944 434.298 171.203C432.965 170.454 431.944 169.414 431.232 168.081C430.521 166.741 430.166 165.188 430.166 163.422C430.166 161.655 430.521 160.106 431.232 158.773C431.944 157.433 432.965 156.393 434.298 155.652C435.63 154.903 437.232 154.529 439.103 154.529C440.795 154.529 442.259 154.836 443.494 155.45C444.736 156.056 445.698 156.917 446.379 158.032C447.06 159.14 447.405 160.443 447.412 161.94H441.663C441.581 161.034 441.319 160.345 440.877 159.874C440.443 159.395 439.882 159.155 439.193 159.155C438.654 159.155 438.183 159.312 437.778 159.627C437.374 159.934 437.06 160.401 436.835 161.03C436.611 161.651 436.498 162.434 436.498 163.377C436.498 164.32 436.611 165.106 436.835 165.735C437.06 166.356 437.374 166.824 437.778 167.138C438.183 167.445 438.654 167.599 439.193 167.599C439.65 167.599 440.054 167.494 440.406 167.284C440.758 167.067 441.042 166.753 441.259 166.341C441.484 165.922 441.618 165.413 441.663 164.814H447.412C447.39 166.334 447.042 167.658 446.368 168.789C445.694 169.912 444.74 170.78 443.505 171.394C442.277 172.007 440.81 172.314 439.103 172.314ZM456.167 162.299V172H449.969V154.754H455.853V158.032H456.033C456.407 156.939 457.066 156.082 458.009 155.461C458.959 154.84 460.067 154.529 461.332 154.529C462.552 154.529 463.612 154.81 464.51 155.371C465.416 155.925 466.115 156.689 466.61 157.662C467.111 158.635 467.358 159.746 467.351 160.996V172H461.153V162.299C461.16 161.446 460.943 160.776 460.501 160.289C460.067 159.803 459.461 159.559 458.682 159.559C458.173 159.559 457.728 159.672 457.346 159.896C456.972 160.113 456.684 160.428 456.482 160.839C456.28 161.243 456.175 161.73 456.167 162.299ZM470.41 172V154.754H476.608V172H470.41ZM473.509 152.957C472.671 152.957 471.952 152.68 471.353 152.126C470.755 151.572 470.455 150.906 470.455 150.128C470.455 149.349 470.755 148.683 471.353 148.129C471.952 147.575 472.671 147.298 473.509 147.298C474.355 147.298 475.074 147.575 475.665 148.129C476.264 148.683 476.563 149.349 476.563 150.128C476.563 150.906 476.264 151.572 475.665 152.126C475.074 152.68 474.355 152.957 473.509 152.957ZM488.075 172.314C486.204 172.314 484.602 171.944 483.269 171.203C481.937 170.454 480.915 169.414 480.204 168.081C479.493 166.741 479.137 165.188 479.137 163.422C479.137 161.655 479.493 160.106 480.204 158.773C480.915 157.433 481.937 156.393 483.269 155.652C484.602 154.903 486.204 154.529 488.075 154.529C489.767 154.529 491.23 154.836 492.465 155.45C493.708 156.056 494.67 156.917 495.351 158.032C496.032 159.14 496.376 160.443 496.384 161.94H490.635C490.553 161.034 490.291 160.345 489.849 159.874C489.415 159.395 488.853 159.155 488.165 159.155C487.626 159.155 487.154 159.312 486.75 159.627C486.346 159.934 486.031 160.401 485.807 161.03C485.582 161.651 485.47 162.434 485.47 163.377C485.47 164.32 485.582 165.106 485.807 165.735C486.031 166.356 486.346 166.824 486.75 167.138C487.154 167.445 487.626 167.599 488.165 167.599C488.621 167.599 489.026 167.494 489.377 167.284C489.729 167.067 490.014 166.753 490.231 166.341C490.455 165.922 490.59 165.413 490.635 164.814H496.384C496.361 166.334 496.013 167.658 495.339 168.789C494.666 169.912 493.711 170.78 492.476 171.394C491.249 172.007 489.782 172.314 488.075 172.314ZM507.25 172.314C505.378 172.314 503.776 171.944 502.444 171.203C501.112 170.454 500.09 169.414 499.379 168.081C498.668 166.741 498.312 165.188 498.312 163.422C498.312 161.655 498.668 160.106 499.379 158.773C500.09 157.433 501.112 156.393 502.444 155.652C503.776 154.903 505.378 154.529 507.25 154.529C509.121 154.529 510.723 154.903 512.055 155.652C513.388 156.393 514.41 157.433 515.121 158.773C515.832 160.106 516.187 161.655 516.187 163.422C516.187 165.188 515.832 166.741 515.121 168.081C514.41 169.414 513.388 170.454 512.055 171.203C510.723 171.944 509.121 172.314 507.25 172.314ZM507.295 167.733C507.819 167.733 508.271 167.557 508.653 167.206C509.035 166.854 509.331 166.352 509.54 165.701C509.75 165.05 509.855 164.275 509.855 163.377C509.855 162.471 509.75 161.696 509.54 161.053C509.331 160.401 509.035 159.9 508.653 159.548C508.271 159.196 507.819 159.02 507.295 159.02C506.741 159.02 506.265 159.196 505.869 159.548C505.472 159.9 505.169 160.401 504.959 161.053C504.75 161.696 504.645 162.471 504.645 163.377C504.645 164.275 504.75 165.05 504.959 165.701C505.169 166.352 505.472 166.854 505.869 167.206C506.265 167.557 506.741 167.733 507.295 167.733ZM534.467 160.368H528.763C528.733 160.016 528.609 159.713 528.392 159.458C528.175 159.204 527.895 159.009 527.55 158.874C527.213 158.732 526.839 158.661 526.427 158.661C525.896 158.661 525.439 158.758 525.058 158.953C524.676 159.148 524.489 159.424 524.496 159.784C524.489 160.038 524.597 160.274 524.822 160.491C525.054 160.708 525.499 160.877 526.158 160.996L529.661 161.625C531.428 161.947 532.741 162.49 533.602 163.253C534.47 164.009 534.908 165.024 534.916 166.296C534.908 167.524 534.542 168.59 533.815 169.496C533.097 170.394 532.113 171.091 530.862 171.585C529.62 172.071 528.201 172.314 526.607 172.314C523.972 172.314 521.91 171.775 520.42 170.698C518.938 169.62 518.111 168.197 517.939 166.431H524.092C524.174 166.977 524.444 167.4 524.9 167.7C525.364 167.992 525.948 168.138 526.652 168.138C527.221 168.138 527.689 168.04 528.055 167.846C528.43 167.651 528.621 167.374 528.628 167.015C528.621 166.685 528.456 166.423 528.134 166.229C527.82 166.034 527.326 165.877 526.652 165.757L523.598 165.218C521.839 164.911 520.521 164.327 519.646 163.467C518.77 162.606 518.336 161.498 518.343 160.143C518.336 158.945 518.65 157.931 519.286 157.1C519.93 156.262 520.847 155.626 522.037 155.191C523.235 154.75 524.653 154.529 526.293 154.529C528.785 154.529 530.75 155.046 532.187 156.079C533.632 157.111 534.392 158.541 534.467 160.368Z" fill="black"/>
</svg>
